<?xml version="1.0" standalone="no"?>
<!DOCTYPE svg PUBLIC "-//W3C//DTD SVG 20010904//EN"
 "http://www.w3.org/TR/2001/REC-SVG-20010904/DTD/svg10.dtd">
<svg version="1.0" xmlns="http://www.w3.org/2000/svg"
 width="300.000000pt" height="300.000000pt" viewBox="0 0 300.000000 300.000000"
 preserveAspectRatio="xMidYMid meet">
<metadata>
Created by potrace 1.11, written by Peter Selinger 2001-2013
</metadata>
<g transform="translate(0.000000,300.000000) scale(0.100000,-0.100000)"
fill="#000000" stroke="none">
<path d="M945 2639 c-83 -12 -190 -66 -247 -125 -27 -26 -48 -53 -48 -58 0 -5
-13 -30 -28 -55 -16 -25 -39 -80 -53 -121 -13 -41 -34 -86 -46 -101 -29 -34
-43 -72 -43 -117 0 -20 -9 -73 -20 -116 -17 -70 -17 -82 -5 -107 8 -15 23 -30
33 -33 15 -5 17 -15 14 -74 -5 -83 24 -178 99 -320 48 -92 73 -125 102 -135 9
-3 7 -10 -5 -24 -10 -11 -18 -27 -18 -37 0 -9 -25 -40 -55 -68 -32 -29 -55
-60 -55 -71 0 -22 71 -159 125 -241 l34 -51 -36 -139 c-34 -130 -36 -141 -21
-166 14 -25 13 -37 -8 -151 -13 -68 -23 -138 -24 -155 0 -18 -9 -39 -21 -50
-13 -12 -19 -27 -16 -41 2 -13 -2 -31 -9 -40 -27 -36 -17 -43 60 -43 l75 0 73
152 73 152 7 -60 c5 -40 2 -79 -8 -121 -9 -34 -14 -75 -12 -90 l3 -28 85 0 85
0 7 95 c8 108 57 343 76 362 6 6 12 23 12 36 0 21 3 23 28 17 15 -3 34 -13 43
-21 8 -7 31 -17 50 -20 19 -4 41 -10 49 -15 9 -4 43 -1 75 7 33 7 80 11 105 8
25 -2 59 0 75 5 28 10 28 10 -10 6 -22 -3 -62 -1 -90 4 -27 5 -40 9 -27 10 12
0 22 5 22 10 0 4 -11 6 -25 3 -14 -2 -25 -10 -25 -17 0 -18 -84 -29 -112 -14
-43 22 -68 53 -83 103 -8 27 -15 50 -15 51 0 5 41 -3 47 -9 4 -4 13 10 19 31
l12 38 1 -43 c1 -35 5 -44 24 -51 20 -8 23 -5 29 28 8 49 -1 94 -18 87 -8 -3
-70 7 -138 23 -93 21 -132 34 -155 54 l-32 26 33 17 c63 32 98 64 98 90 0 34
31 29 41 -6 6 -22 7 -22 8 -4 1 18 7 21 39 20 30 -1 37 -5 37 -21 0 -11 5 -24
10 -28 6 -6 6 -10 -3 -14 -6 -2 -9 -10 -6 -15 4 -6 2 -8 -4 -4 -11 6 -42 -30
-42 -49 0 -6 3 -6 8 1 4 6 14 15 23 20 9 5 31 22 49 37 25 21 30 31 21 40 -8
8 -11 7 -11 -6 0 -9 -4 -17 -10 -17 -5 0 -10 12 -10 26 0 20 4 24 18 20 19 -6
49 8 35 17 -5 3 -45 9 -89 12 -103 8 -126 13 -118 26 4 8 10 7 16 -2 7 -11 8
-9 4 4 -8 25 4 43 16 26 8 -11 9 -10 4 3 -6 21 41 81 56 71 6 -3 8 -1 4 5 -4
6 3 12 16 15 13 2 8 4 -10 3 -31 -2 -36 2 -62 55 -28 54 -31 57 -77 64 -54 8
-86 22 -78 34 3 5 51 31 107 58 75 37 115 63 146 97 40 44 92 135 92 163 0 7
7 10 15 7 18 -7 65 21 65 39 0 7 25 61 55 121 60 116 68 163 36 195 -10 10
-23 20 -29 22 -8 3 -8 17 -1 49 19 81 13 217 -13 295 -48 144 -127 245 -231
295 -98 48 -167 57 -292 39z m-4 -124 c50 -17 65 -23 132 -55 27 -12 67 -24
90 -27 23 -2 73 -14 110 -26 58 -19 71 -27 82 -53 30 -73 34 -172 9 -233 -18
-43 -16 -301 2 -301 18 0 28 -69 13 -86 -10 -12 -14 -12 -20 -2 -8 13 -11 4
-27 -105 -13 -83 -49 -160 -99 -211 -24 -24 -88 -63 -171 -103 -131 -65 -133
-66 -200 -61 -46 3 -86 14 -127 34 -58 28 -62 32 -117 134 -32 58 -67 134 -78
169 -22 70 -27 185 -9 241 6 19 12 63 13 97 2 52 0 61 -11 52 -7 -6 -13 -19
-13 -28 -1 -11 -5 -8 -15 9 -10 18 -14 20 -15 8 0 -9 10 -24 22 -32 20 -15 21
-18 8 -70 -11 -49 -15 -54 -31 -45 -28 15 -33 55 -16 118 9 31 19 85 23 121
14 132 44 153 41 28 -1 -58 2 -82 11 -85 6 -3 12 3 12 11 0 33 39 127 68 164
21 27 31 52 35 92 10 102 73 194 162 236 59 28 60 28 116 9z m569 -594 c17
-33 11 -63 -27 -136 -20 -38 -49 -96 -65 -127 -21 -42 -35 -58 -50 -58 -18 0
-19 4 -13 53 4 30 15 61 27 74 16 17 19 29 14 59 -7 35 -5 39 45 85 29 27 50
49 46 49 -4 0 -25 -16 -47 -36 -43 -39 -48 -38 -25 6 26 50 76 66 95 31z
m-670 -688 c28 -3 47 -10 44 -15 -11 -18 -154 22 -154 43 0 5 14 2 31 -6 16
-9 52 -19 79 -22z m-59 -13 c24 -11 54 -20 67 -20 27 0 27 -8 2 -40 -11 -14
-20 -29 -20 -35 0 -5 9 1 20 15 15 19 20 22 24 10 10 -28 22 -200 14 -200 -4
0 -8 5 -8 12 0 6 -20 45 -44 87 -62 107 -106 191 -102 191 2 0 23 -9 47 -20z
m213 -89 c36 -108 59 -250 44 -268 -6 -8 -14 -10 -18 -6 -4 4 -28 77 -55 160
-45 143 -51 183 -23 155 7 -7 17 -12 23 -12 15 1 -35 40 -51 40 -23 0 -16 28
9 32 30 5 42 -12 71 -101z m183 -443 c6 -5 24 -13 40 -18 l28 -8 -25 -1 c-42
-2 -49 -17 -34 -69 8 -26 24 -60 35 -76 14 -18 16 -27 8 -24 -8 3 -19 14 -25
26 -14 29 -29 42 -21 20 4 -10 2 -18 -3 -18 -5 0 -12 9 -15 20 -3 11 -10 20
-15 20 -5 0 -6 -8 -3 -17 14 -37 -26 8 -48 54 -20 42 -21 47 -6 78 13 28 19
32 44 27 15 -2 33 -9 40 -14z m23 12 c0 -5 -2 -10 -4 -10 -3 0 -8 5 -11 10 -3
6 -1 10 4 10 6 0 11 -4 11 -10z m-265 -44 c30 -14 55 -27 55 -30 0 -4 -27 -6
-60 -6 l-60 0 0 30 c0 17 2 30 5 30 2 0 29 -11 60 -24z m161 -82 l20 -42 -58
21 c-39 14 -58 26 -58 37 0 24 8 29 44 27 28 -2 36 -8 52 -43z"/>
<path d="M521 2134 c0 -11 3 -14 6 -6 3 7 2 16 -1 19 -3 4 -6 -2 -5 -13z"/>
<path d="M698 2087 c-16 -6 -28 -15 -28 -20 0 -5 8 -6 18 -2 40 17 55 17 113
0 44 -12 64 -14 72 -6 7 7 8 14 1 21 -14 14 -145 19 -176 7z"/>
<path d="M507 2043 c-4 -3 -7 -13 -7 -22 1 -13 3 -13 11 2 11 19 8 33 -4 20z"/>
<path d="M713 2034 c9 -3 17 -14 17 -25 0 -15 7 -19 34 -19 18 0 39 7 46 15 7
8 18 15 24 14 7 0 6 -2 -1 -6 -10 -3 -10 -8 1 -19 18 -18 32 -18 17 -1 -6 8
-8 16 -5 20 12 12 -33 24 -91 25 -33 0 -52 -2 -42 -4z"/>
<path d="M660 2022 c0 -4 9 -8 20 -9 11 -1 18 2 15 8 -7 11 -35 12 -35 1z"/>
<path d="M1051 2011 c-9 -6 4 -11 40 -15 30 -4 67 -10 83 -13 46 -8 22 13 -28
26 -53 13 -76 14 -95 2z"/>
<path d="M1060 1958 c0 -5 7 -8 15 -8 8 0 15 -9 15 -19 0 -12 11 -23 30 -29
24 -9 31 -8 40 6 9 16 11 16 24 -2 14 -17 36 -15 36 3 0 11 -51 44 -67 44 -7
0 -13 4 -13 7 0 4 -18 7 -40 6 -22 0 -40 -4 -40 -8z"/>
<path d="M1030 1940 c0 -5 7 -10 16 -10 8 0 12 5 9 10 -3 6 -10 10 -16 10 -5
0 -9 -4 -9 -10z"/>
<path d="M1010 1896 c0 -2 8 -10 18 -17 15 -13 16 -12 3 4 -13 16 -21 21 -21
13z"/>
<path d="M782 1814 c-12 -8 -22 -22 -22 -30 0 -15 116 -134 131 -134 4 0 29
11 55 25 27 14 39 25 28 25 -10 0 -30 -9 -44 -20 -14 -11 -28 -20 -32 -20 -8
0 -128 115 -128 123 0 4 10 15 22 27 26 24 21 26 -10 4z"/>
<path d="M857 1823 c-4 -3 -7 -11 -7 -17 0 -6 5 -5 12 2 6 6 9 14 7 17 -3 3
-9 2 -12 -2z"/>
<path d="M1015 1757 c3 -18 1 -35 -7 -45 -12 -15 -11 -16 5 -3 19 15 22 39 6
61 -8 11 -9 8 -4 -13z"/>
<path d="M663 1740 c-33 -20 -62 -60 -43 -60 5 0 10 7 10 15 0 9 16 25 35 36
19 12 35 23 35 25 0 6 -3 5 -37 -16z"/>
<path d="M1059 1703 c5 -10 26 -40 45 -68 41 -57 42 -61 19 -89 -18 -21 -18
-21 5 -2 12 11 22 26 22 34 0 8 -21 43 -47 78 -46 63 -63 81 -44 47z"/>
<path d="M610 1661 c0 -6 4 -13 10 -16 6 -3 7 1 4 9 -7 18 -14 21 -14 7z"/>
<path d="M694 1624 c9 -8 16 -20 16 -26 0 -37 93 -109 137 -107 11 0 8 4 -9 9
-51 15 -90 45 -110 85 l-21 40 40 -36 c22 -20 57 -42 78 -49 37 -12 147 -9
195 6 l25 7 -20 -24 -20 -24 28 24 c20 18 24 27 15 33 -21 12 -48 9 -65 -8
-23 -23 -152 -12 -199 16 -44 28 -47 54 -4 38 17 -5 33 -14 36 -19 3 -5 10 -9
16 -9 25 0 -41 38 -84 48 -63 16 -73 15 -54 -4z"/>
<path d="M940 1579 c0 -5 9 -9 20 -9 11 0 20 2 20 4 0 2 -9 6 -20 9 -11 3 -20
1 -20 -4z"/>
<path d="M858 1573 c7 -3 16 -2 19 1 4 3 -2 6 -13 5 -11 0 -14 -3 -6 -6z"/>
<path d="M1492 1873 c-1 -17 -5 -40 -8 -50 -5 -17 -5 -17 6 0 6 9 9 32 7 50
l-4 32 -1 -32z"/>
<path d="M1420 1788 c0 -9 5 -20 10 -23 13 -8 13 5 0 25 -8 13 -10 13 -10 -2z"/>
<path d="M1409 1723 c-13 -16 -12 -17 4 -4 9 7 17 15 17 17 0 8 -8 3 -21 -13z"/>
<path d="M2010 2428 c-19 -5 -57 -13 -85 -17 -84 -12 -150 -57 -200 -136 -40
-61 -92 -210 -100 -281 -4 -37 1 -25 19 45 38 140 114 291 148 291 6 0 2 -10
-10 -23 -12 -13 -19 -27 -15 -32 5 -4 3 -5 -3 -2 -6 4 -16 -5 -23 -19 -16 -36
-13 -43 7 -16 9 12 27 24 39 26 12 3 31 10 43 16 12 6 24 9 28 6 3 -3 0 -6 -6
-6 -6 0 -25 -12 -43 -27 -25 -21 -31 -23 -26 -10 4 11 3 16 -4 12 -5 -4 -8
-12 -6 -18 2 -7 -2 -25 -10 -41 -8 -15 -10 -25 -4 -22 19 12 12 -5 -19 -44
-50 -63 -34 -55 23 12 28 34 57 63 63 65 16 5 10 -34 -9 -54 -9 -10 -30 -48
-47 -84 -34 -74 -60 -231 -60 -366 1 -43 -6 -105 -14 -138 -8 -33 -11 -62 -7
-65 4 -3 11 -33 14 -67 6 -61 79 -262 99 -274 14 -9 -16 -19 -39 -13 -28 8
-121 152 -144 225 -29 90 -31 360 -5 529 6 35 6 35 -4 5 -34 -100 -43 -383
-16 -498 19 -81 39 -122 100 -205 43 -58 52 -90 21 -78 -7 2 -15 -4 -18 -15
-3 -11 0 -19 8 -19 10 0 22 -42 27 -97 1 -7 3 -11 6 -8 8 7 34 -24 28 -34 -3
-5 2 -7 12 -4 13 3 29 -11 57 -54 22 -31 48 -66 59 -76 18 -19 17 -19 -13 -12
-17 4 -31 3 -30 -2 1 -4 1 -38 0 -74 l-1 -66 -36 -6 c-23 -4 -50 0 -72 9 -48
19 -68 2 -32 -27 24 -20 24 -20 3 -14 -19 5 -23 2 -23 -17 0 -16 6 -24 20 -25
11 -1 22 2 25 8 4 5 1 9 -5 9 -6 0 -8 5 -4 11 4 7 9 8 17 0 7 -7 5 -18 -6 -35
-14 -21 -22 -23 -57 -19 -38 5 -41 4 -51 -25 -6 -17 -18 -33 -27 -35 -15 -4
-15 -5 -1 -6 9 0 22 6 29 14 14 17 35 21 25 5 -11 -17 5 -11 51 21 49 33 78
79 57 86 -7 3 -23 14 -35 25 -20 17 -21 19 -3 12 11 -5 41 -8 68 -7 26 1 47
-2 47 -6 0 -4 7 -16 16 -27 14 -18 15 -18 9 6 -6 23 -5 24 9 7 13 -17 10 -22
-27 -56 -83 -74 -136 -112 -153 -109 -9 2 -19 -3 -21 -9 -6 -17 12 -16 46 2
l28 14 6 -57 c8 -75 51 -239 82 -310 13 -31 24 -51 25 -44 0 8 17 12 50 12
l50 0 0 -35 c0 -19 5 -35 10 -35 6 0 10 17 10 39 0 38 0 38 48 45 52 7 68 -4
79 -56 3 -16 10 -28 15 -28 10 0 3 31 -19 73 -8 16 -9 27 -3 27 5 0 10 10 10
23 0 12 14 79 31 147 17 69 32 158 34 200 2 64 -1 80 -21 110 -13 19 -30 52
-38 72 l-16 37 54 45 c29 25 55 46 57 46 2 0 5 -16 7 -36 4 -68 18 -70 35 -7
22 76 22 89 1 69 -8 -9 -13 -19 -10 -24 2 -4 1 -23 -4 -42 l-8 -35 -1 44 c-1
38 5 51 46 98 53 63 83 117 83 151 0 13 -13 37 -30 54 -16 16 -30 32 -30 36 0
3 5 1 12 -6 16 -16 31 -15 25 1 -3 8 1 14 9 14 16 0 17 -6 5 -27 -6 -8 -7 -18
-4 -23 3 -6 12 1 20 14 8 13 12 16 9 7 -3 -10 -8 -26 -12 -35 -3 -10 9 9 26
42 18 33 37 65 44 70 11 9 57 134 69 190 3 12 5 6 7 -15 l2 -35 12 33 c6 18
15 30 19 26 8 -8 1 36 -14 95 -5 19 -6 37 -4 39 4 5 6 0 18 -38 3 -8 3 23 1
70 l-3 85 12 -67 c7 -37 16 -70 20 -75 5 -4 6 10 2 32 -4 22 -4 37 -1 33 4 -3
11 -28 16 -55 6 -34 7 -9 5 86 -2 78 -8 136 -14 140 -5 4 -17 33 -25 66 l-15
60 4 -55 c5 -59 5 -60 -30 55 -8 28 -12 38 -10 23 7 -40 -12 -35 -20 5 -10 48
-36 129 -41 124 -2 -2 3 -23 11 -47 13 -38 13 -41 0 -30 -8 7 -15 20 -16 29 0
10 -2 11 -6 4 -2 -7 4 -28 15 -45 27 -43 67 -196 46 -175 -3 3 -12 23 -20 44
l-15 38 5 -35 5 -35 -14 30 c-8 17 -14 37 -15 45 -1 19 -30 59 -30 41 0 -7 -5
-9 -12 -5 -8 5 -9 2 -3 -12 4 -10 8 -32 9 -49 1 -16 8 -39 15 -50 l13 -20 -7
20 c-4 11 -9 29 -12 40 -3 16 -2 17 5 5 13 -20 56 -190 49 -196 -6 -7 -42 55
-50 87 -4 14 -13 26 -22 26 -19 0 -19 -7 1 -35 9 -13 14 -25 11 -28 -7 -7 -57
86 -67 126 -10 35 -10 35 -6 -8 2 -23 0 -40 -5 -36 -5 3 -9 -1 -9 -8 -1 -7
-10 3 -21 22 l-20 35 6 -37 c4 -29 1 -42 -14 -57 -19 -19 -19 -19 -25 3 -3 12
-10 62 -16 111 -19 174 -69 305 -140 369 -50 45 -44 46 17 2 59 -41 113 -68
113 -55 0 5 -4 9 -8 9 -5 0 -17 7 -28 15 -17 14 -16 14 13 0 43 -20 56 -20 44
3 -5 9 -13 26 -16 37 -5 14 -9 16 -12 7 -4 -9 -15 -3 -37 20 -17 18 -42 41
-56 51 -18 13 -14 12 13 -2 51 -28 59 -26 22 5 -20 17 -23 22 -8 15 12 -6 40
-32 62 -58 23 -27 41 -43 41 -37 0 6 -16 29 -35 51 -19 22 -31 44 -27 48 4 5
2 5 -5 1 -6 -3 -14 -3 -17 2 -2 4 4 8 14 9 12 1 38 -19 65 -49 32 -36 45 -45
45 -32 -1 22 -21 47 -68 87 -19 15 -29 27 -24 27 13 0 83 -56 104 -83 9 -12
20 -19 23 -15 12 12 -66 87 -118 113 -33 16 -42 24 -24 20 16 -3 27 -1 27 5 0
7 7 7 23 -1 21 -11 21 -10 6 6 -9 9 -41 21 -70 25 l-54 9 53 -3 c60 -4 58 9
-3 22 l-40 9 34 7 c48 11 161 -46 234 -119 90 -90 172 -268 202 -440 21 -119
30 -388 16 -454 -15 -72 -61 -172 -74 -164 -5 3 -7 1 -3 -5 7 -11 -23 -83 -33
-78 -3 2 -7 -12 -8 -33 -2 -30 7 -17 56 84 86 179 86 178 83 355 -4 268 -32
399 -123 586 -39 80 -62 113 -112 161 -117 112 -269 164 -387 131z m137 -14
c-3 -3 -12 -4 -19 -1 -8 3 -5 6 6 6 11 1 17 -2 13 -5z m-99 -38 c-10 -7 -14
-17 -10 -21 4 -5 1 -5 -6 -1 -8 5 -22 0 -35 -11 -30 -28 -52 -40 -42 -24 4 7
28 26 53 42 47 30 71 39 40 15z m90 -43 c-10 -2 -28 -2 -40 0 -13 2 -5 4 17 4
22 1 32 -1 23 -4z m-244 -12 c4 -5 -2 -7 -12 -4 -11 2 -37 -3 -58 -11 l-39
-16 24 20 c24 21 75 27 85 11z m-25 -53 c-2 -2 -26 -23 -53 -48 -28 -26 -44
-36 -37 -24 12 26 68 74 83 74 6 0 9 -1 7 -2z m14 -55 c-5 -12 -3 -14 7 -8 9
5 11 4 6 -4 -15 -23 16 -40 85 -47 77 -7 106 -24 143 -83 18 -29 76 -170 76
-185 0 -2 -22 -6 -49 -8 -48 -5 -109 -33 -97 -45 3 -3 25 1 48 10 24 9 57 17
73 19 26 3 30 -1 33 -22 3 -24 1 -25 -36 -22 -41 4 -102 -20 -102 -40 0 -6 8
-4 18 5 25 22 42 21 42 -2 0 -14 -6 -18 -22 -15 -21 4 -22 4 -3 -5 19 -9 31
-8 90 4 23 5 25 3 25 -32 0 -69 31 -154 71 -194 l37 -37 -24 -58 c-42 -104
-137 -164 -274 -171 -77 -5 -88 -3 -119 18 -69 48 -108 121 -146 273 -39 156
-42 211 -19 354 18 113 51 192 102 245 33 34 35 53 2 25 -8 -7 -4 -1 9 15 28
31 33 33 24 10z m228 -25 c23 -18 43 -41 45 -51 2 -15 0 -16 -12 -6 -7 6 -12
15 -9 19 3 5 -16 22 -42 39 -25 17 -42 31 -35 31 6 0 30 -15 53 -32z m-186 2
c3 -5 1 -10 -4 -10 -6 0 -11 5 -11 10 0 6 2 10 4 10 3 0 8 -4 11 -10z m88 -17
c-13 -2 -35 -2 -50 0 -16 2 -5 4 22 4 28 0 40 -2 28 -4z m417 -381 c0 -15 -2
-15 -10 -2 -13 20 -13 33 0 25 6 -3 10 -14 10 -23z m-220 -2 c0 -5 -4 -10 -10
-10 -5 0 -10 5 -10 10 0 6 5 10 10 10 6 0 10 -4 10 -10z m347 -122 c-3 -7 -5
-2 -5 12 0 14 2 19 5 13 2 -7 2 -19 0 -25z m-253 -35 c3 -10 6 -22 6 -28 1 -5
15 -25 32 -42 18 -18 30 -33 27 -33 -3 0 -25 21 -49 46 -25 26 -39 44 -32 40
6 -4 12 -2 12 3 0 6 -7 11 -15 11 -8 0 -15 5 -15 10 0 17 28 11 34 -7z m-560
-55 c2 -25 7 -51 11 -58 4 -6 4 -14 1 -17 -3 -4 -6 -1 -6 5 0 7 -5 12 -11 12
-15 0 -7 -138 10 -165 10 -17 11 -13 9 27 -1 27 2 52 7 57 7 6 11 -17 13 -65
3 -71 -1 -82 -24 -66 -28 20 -60 194 -43 237 4 11 8 14 8 8 1 -7 4 -13 9 -13
4 0 6 21 3 48 -2 26 0 44 3 41 4 -3 8 -26 10 -51z m535 12 c11 -24 11 -24 -3
-6 -9 11 -16 24 -16 30 0 12 5 7 19 -24z m66 -68 c-8 -9 -56 29 -49 39 4 6 15
2 30 -12 13 -12 22 -25 19 -27z m13 -29 c-9 -10 -20 -34 -26 -55 -8 -30 -7
-42 10 -68 22 -36 31 -32 47 20 10 33 10 33 5 -12 l-6 -47 32 9 c23 7 30 6 27
-3 -2 -6 -18 -16 -35 -21 -37 -10 -66 9 -88 59 l-13 30 -22 -52 c-13 -29 -26
-53 -31 -53 -4 0 -5 8 -1 18 4 13 2 13 -9 -3 -14 -21 -17 -102 -4 -145 l7 -25
-24 28 c-19 22 -23 39 -22 82 0 52 2 56 42 85 38 28 73 81 73 112 0 19 29 58
42 58 6 0 4 -8 -4 -17z m-176 -255 c2 -29 0 -59 -5 -66 -9 -12 -232 -147 -262
-158 -16 -7 -14 2 42 161 l28 80 59 3 c33 2 74 10 90 17 44 19 44 20 48 -37z
m109 0 c-3 -21 -6 -26 -9 -15 -3 17 3 47 11 47 2 0 1 -15 -2 -32z m-351 -28
c0 -11 -4 -20 -9 -20 -5 0 -7 9 -4 20 3 11 7 20 9 20 2 0 4 -9 4 -20z m449 13
c0 -5 -9 -26 -20 -48 -11 -22 -17 -31 -14 -20 4 11 9 32 12 48 3 15 9 27 14
27 5 0 9 -3 8 -7z m-112 -60 c-3 -10 -5 -4 -5 12 0 17 2 24 5 18 2 -7 2 -21 0
-30z m57 3 c-3 -15 -8 -25 -11 -23 -2 3 -1 17 3 31 3 15 8 25 11 23 2 -3 1
-17 -3 -31z m-44 -71 c0 -12 -20 6 -31 28 l-11 22 21 -22 c11 -12 21 -25 21
-28z m-600 -555 c-8 -5 -24 -10 -35 -10 -17 0 -17 2 -5 10 8 5 24 10 35 10 17
0 17 -2 5 -10z"/>
<path d="M1761 1856 c-10 -12 -6 -13 26 -9 24 3 54 -1 77 -11 44 -18 70 -21
61 -6 -21 34 -142 53 -164 26z"/>
<path d="M1812 1804 c-42 -29 -23 -54 44 -54 24 0 34 5 34 15 0 8 7 15 16 15
11 0 14 -5 10 -16 -4 -10 -1 -14 6 -12 24 8 17 24 -22 46 -46 26 -58 27 -88 6z
m25 -40 c-2 -2 -12 -1 -22 2 -17 7 -17 8 1 21 17 12 19 12 22 -2 2 -9 2 -19
-1 -21z"/>
<path d="M2076 1637 c3 -10 9 -15 12 -12 3 3 0 11 -7 18 -10 9 -11 8 -5 -6z"/>
<path d="M2026 1585 c-11 -8 -15 -15 -9 -15 6 0 16 7 23 15 16 19 11 19 -14 0z"/>
<path d="M1952 1574 c10 -10 20 -16 22 -13 3 3 -5 11 -17 18 -21 13 -21 12 -5
-5z"/>
<path d="M2117 1500 c-27 -5 -51 -11 -54 -14 -9 -9 101 6 112 15 10 10 11 10
-58 -1z"/>
<path d="M1870 1496 c0 -2 7 -9 15 -16 9 -7 15 -8 15 -2 0 5 -7 12 -15 16 -8
3 -15 4 -15 2z"/>
<path d="M2216 1235 c-3 -9 -6 -22 -5 -28 0 -7 5 -1 10 12 5 13 8 26 5 28 -2
2 -6 -3 -10 -12z"/>
<path d="M2280 2326 c0 -2 8 -10 18 -17 15 -13 16 -12 3 4 -13 16 -21 21 -21
13z"/>
<path d="M2365 2250 c27 -27 51 -50 54 -50 3 0 -17 23 -44 50 -27 28 -51 50
-54 50 -3 0 17 -22 44 -50z"/>
<path d="M2180 2192 c0 -5 7 -15 15 -22 8 -7 15 -8 15 -2 0 5 -7 15 -15 22 -8
7 -15 8 -15 2z"/>
<path d="M2440 2163 c13 -18 25 -33 27 -33 8 0 -17 38 -33 51 -11 9 -9 2 6
-18z"/>
<path d="M2375 2144 c10 -17 26 -41 37 -55 l20 -24 -17 31 c-10 17 -26 41 -37
55 l-20 24 17 -31z"/>
<path d="M2361 2024 c0 -11 3 -14 6 -6 3 7 2 16 -1 19 -3 4 -6 -2 -5 -13z"/>
<path d="M1661 2004 c0 -11 3 -14 6 -6 3 7 2 16 -1 19 -3 4 -6 -2 -5 -13z"/>
<path d="M1692 1955 c0 -16 2 -22 5 -12 2 9 2 23 0 30 -3 6 -5 -1 -5 -18z"/>
<path d="M2376 1957 c3 -10 9 -15 12 -12 3 3 0 11 -7 18 -10 9 -11 8 -5 -6z"/>
<path d="M2380 1891 c0 -5 5 -13 10 -16 6 -3 10 -2 10 4 0 5 -4 13 -10 16 -5
3 -10 2 -10 -4z"/>
<path d="M1682 1820 c-4 -123 -30 -328 -46 -360 -8 -17 -11 -30 -7 -30 16 0
41 73 51 152 6 46 9 135 8 198 -3 85 -4 95 -6 40z"/>
<path d="M2341 1854 c0 -11 3 -14 6 -6 3 7 2 16 -1 19 -3 4 -6 -2 -5 -13z"/>
<path d="M2311 1844 c0 -11 3 -14 6 -6 3 7 2 16 -1 19 -3 4 -6 -2 -5 -13z"/>
<path d="M2531 1834 c0 -11 3 -14 6 -6 3 7 2 16 -1 19 -3 4 -6 -2 -5 -13z"/>
<path d="M2448 1813 c5 -21 7 -23 10 -9 2 10 0 22 -6 28 -6 6 -7 0 -4 -19z"/>
<path d="M2561 1824 c0 -11 3 -14 6 -6 3 7 2 16 -1 19 -3 4 -6 -2 -5 -13z"/>
<path d="M2261 1804 c0 -11 3 -14 6 -6 3 7 2 16 -1 19 -3 4 -6 -2 -5 -13z"/>
<path d="M2291 1795 c1 -29 27 -104 28 -80 0 11 -6 38 -14 60 -8 22 -14 31
-14 20z"/>
<path d="M2381 1740 c0 -8 4 -24 9 -35 5 -13 9 -14 9 -5 0 8 -4 24 -9 35 -5
13 -9 14 -9 5z"/>
<path d="M2361 1720 c0 -8 4 -22 9 -30 12 -18 12 -2 0 25 -6 13 -9 15 -9 5z"/>
<path d="M2572 1390 c0 -19 2 -27 5 -17 2 9 2 25 0 35 -3 9 -5 1 -5 -18z"/>
<path d="M2552 1290 c0 -14 2 -19 5 -12 2 6 2 18 0 25 -3 6 -5 1 -5 -13z"/>
<path d="M1689 1275 c5 -11 17 -29 26 -40 l16 -20 -10 20 c-5 11 -17 29 -26
40 l-16 20 10 -20z"/>
<path d="M1657 1116 c-10 -8 -14 -16 -10 -19 11 -7 27 4 31 21 3 15 1 15 -21
-2z"/>
<path d="M1357 1094 c3 -9 9 -11 12 -6 3 5 13 12 21 15 9 3 4 6 -12 6 -21 1
-26 -3 -21 -15z"/>
<path d="M1416 1069 c-15 -22 -26 -43 -22 -46 3 -3 8 2 12 11 3 9 10 16 15 16
19 0 49 -36 49 -59 0 -24 0 -24 15 -5 13 16 14 16 9 1 -5 -13 -2 -16 10 -11 9
3 16 10 16 16 0 5 6 6 13 2 8 -5 8 -2 -2 9 -16 20 -25 22 -15 5 3 -7 -5 0 -19
17 -13 16 -23 34 -20 40 2 6 -4 19 -14 27 -17 15 -20 14 -47 -23z"/>
<path d="M1221 1068 c-5 -13 -6 -29 -4 -35 6 -14 59 -18 67 -5 3 5 -8 6 -25 4
-22 -3 -29 0 -29 12 0 10 4 15 9 12 5 -4 7 3 4 14 -7 26 -12 25 -22 -2z"/>
<path d="M1307 1061 c-3 -13 -1 -18 9 -14 7 2 10 11 7 19 -7 19 -10 18 -16 -5z"/>
<path d="M1642 1068 c-8 -8 -42 -13 -86 -13 -50 0 -71 -3 -66 -10 11 -14 147
-2 162 13 7 7 9 14 7 17 -3 2 -11 -1 -17 -7z"/>
<path d="M2464 1056 c-3 -14 -10 -26 -14 -26 -5 0 -6 -10 -2 -22 4 -15 2 -19
-7 -13 -10 6 -11 2 -6 -15 5 -15 4 -20 -4 -16 -6 4 -11 0 -11 -11 0 -15 -2
-16 -10 -3 -18 29 -22 -18 -10 -120 6 -55 8 -106 4 -113 -5 -9 -4 -9 7 1 9 8
13 35 13 82 -1 39 3 70 7 70 5 0 4 12 -1 26 -12 31 -12 34 -1 34 5 0 12 -13
16 -30 4 -16 11 -33 17 -36 7 -4 7 2 2 17 -10 29 -7 100 7 152 6 22 8 41 5 44
-3 3 -8 -6 -12 -21z m-45 -179 c1 -5 -3 -5 -9 -2 -5 3 -10 16 -9 28 0 21 1 21
9 2 5 -11 9 -24 9 -28z"/>
<path d="M1363 1046 c-24 -11 -29 -21 -15 -29 4 -3 15 6 25 19 10 13 17 23 15
23 -2 -1 -13 -6 -25 -13z"/>
<path d="M1415 1020 c-3 -5 -1 -10 4 -10 6 0 11 5 11 10 0 6 -2 10 -4 10 -3 0
-8 -4 -11 -10z"/>
<path d="M2381 998 c-12 -34 -6 -52 9 -28 10 15 14 60 6 60 -2 0 -9 -14 -15
-32z"/>
<path d="M1685 1010 c-13 -6 -15 -9 -5 -9 8 0 22 4 30 9 18 12 2 12 -25 0z"/>
<path d="M1357 986 c-6 -16 2 -28 14 -20 12 7 11 34 0 34 -5 0 -11 -6 -14 -14z"/>
<path d="M1390 978 c0 -23 16 -32 24 -13 3 8 13 15 23 15 15 0 16 -2 3 -10
-13 -8 -12 -10 3 -10 9 0 17 7 17 15 0 9 -9 15 -25 15 -14 0 -25 -6 -25 -12 0
-9 -4 -8 -10 2 -8 13 -10 13 -10 -2z"/>
<path d="M1702 948 c2 -6 11 -12 20 -14 11 -1 15 3 11 12 -6 17 -36 19 -31 2z"/>
<path d="M1360 915 c0 -33 2 -35 33 -36 17 -1 37 0 42 1 5 1 7 -2 3 -6 -9 -8
10 -34 24 -34 6 0 6 6 -1 14 -9 11 -8 18 5 30 21 22 11 32 -19 19 -13 -6 -36
-9 -51 -6 -23 5 -27 9 -22 29 4 14 2 24 -4 24 -5 0 -10 -16 -10 -35z"/>
<path d="M1470 941 c0 -5 6 -14 14 -20 10 -9 15 -8 19 3 3 8 -1 17 -9 20 -21
8 -24 8 -24 -3z"/>
<path d="M1657 934 c-6 -10 9 -42 16 -34 3 3 1 14 -3 24 -3 11 -9 15 -13 10z"/>
<path d="M1774 914 c-9 -16 -24 -40 -34 -54 -9 -14 -19 -29 -22 -35 -4 -6 11
-9 40 -7 26 2 42 -1 36 -5 -8 -6 -5 -13 11 -25 19 -14 24 -15 28 -4 3 8 -1 17
-9 20 -21 8 -17 21 10 32 l24 9 -33 49 -33 48 -18 -28z m32 -45 c3 -6 -2 -18
-11 -27 -11 -11 -15 -12 -10 -3 5 9 1 19 -10 28 -18 12 -18 13 2 13 12 0 25
-5 29 -11z"/>
<path d="M2355 904 c-3 -20 -12 -43 -19 -50 -7 -7 -16 -32 -20 -55 -7 -45 1
-68 11 -30 4 17 8 19 14 9 16 -25 29 14 29 90 0 39 -2 72 -4 72 -2 0 -7 -16
-11 -36z m-9 -91 c-10 -10 -19 5 -10 18 6 11 8 11 12 0 2 -7 1 -15 -2 -18z"/>
<path d="M1330 904 c0 -14 4 -23 9 -20 5 3 7 15 4 26 -7 28 -13 25 -13 -6z"/>
<path d="M1520 909 c0 -11 -4 -18 -9 -14 -13 7 -24 -30 -16 -56 5 -16 14 -19
38 -17 38 4 49 34 21 55 -10 7 -12 13 -6 13 10 0 10 5 2 20 -14 26 -30 26 -30
-1z"/>
<path d="M1745 920 c-4 -6 -10 -8 -15 -5 -5 3 -12 0 -16 -6 -5 -8 -3 -9 6 -4
8 5 11 3 8 -6 -3 -8 -10 -15 -16 -15 -25 -3 -27 -5 -13 -13 11 -7 21 -1 38 22
13 17 23 32 23 34 0 7 -9 2 -15 -7z"/>
<path d="M1183 908 c4 -12 1 -18 -8 -18 -15 0 -65 -60 -65 -77 0 -6 9 -13 20
-16 10 -3 18 -2 17 2 -1 3 12 25 27 49 21 31 32 39 37 30 5 -8 9 -8 9 -2 0 6
-10 19 -22 30 -19 17 -21 17 -15 2z"/>
<path d="M1693 838 c-15 -20 -25 -38 -20 -38 3 0 12 11 21 25 17 26 16 35 -1
13z"/>
<path d="M1560 806 c0 -2 7 -6 15 -10 8 -3 15 -1 15 4 0 6 -7 10 -15 10 -8 0
-15 -2 -15 -4z"/>
<path d="M1728 805 c-3 -3 -16 -8 -28 -10 -31 -6 -38 -15 -12 -15 24 0 28 -10
11 -27 -7 -7 -6 -12 5 -16 11 -5 16 0 16 13 0 11 10 28 22 40 16 15 18 20 7
20 -9 0 -18 -2 -21 -5z"/>
<path d="M1164 788 c-4 -7 -4 -10 1 -6 4 4 16 3 26 -3 11 -5 19 -7 19 -5 0 3
-9 10 -19 16 -15 7 -22 7 -27 -2z"/>
<path d="M1489 798 c-7 -23 -3 -45 8 -41 10 4 11 9 3 18 -9 11 -5 14 17 18
l28 4 -27 2 c-16 0 -28 0 -29 -1z"/>
<path d="M1746 775 c-20 -20 -20 -25 -2 -25 8 0 17 7 20 16 9 24 1 28 -18 9z"/>
<path d="M1344 765 c-4 -8 -16 -15 -28 -15 -16 0 -18 -2 -6 -9 8 -6 19 -7 25
-3 5 3 19 6 29 7 11 0 20 6 22 13 1 7 0 8 -3 2 -8 -16 -26 -12 -19 5 3 8 1 15
-5 15 -5 0 -12 -7 -15 -15z"/>
<path d="M1565 770 c-3 -5 -1 -10 4 -10 6 0 11 5 11 10 0 6 -2 10 -4 10 -3 0
-8 -4 -11 -10z"/>
<path d="M1608 773 c7 -3 16 -2 19 1 4 3 -2 6 -13 5 -11 0 -14 -3 -6 -6z"/>
<path d="M1405 751 c-4 -9 0 -11 11 -7 8 3 24 6 35 6 10 0 19 3 19 8 0 13 -60
7 -65 -7z"/>
<path d="M1528 763 c7 -3 16 -2 19 1 4 3 -2 6 -13 5 -11 0 -14 -3 -6 -6z"/>
<path d="M2292 730 c0 -14 2 -19 5 -12 2 6 2 18 0 25 -3 6 -5 1 -5 -13z"/>
<path d="M1620 721 c0 -14 -5 -19 -15 -15 -16 6 -30 -17 -23 -37 3 -8 9 -6 21
5 9 10 17 13 17 7 0 -5 -5 -13 -11 -17 -8 -4 -6 -10 6 -17 17 -9 16 -11 -6
-23 -23 -13 -23 -14 11 -8 42 6 42 7 47 41 10 73 9 78 -19 81 -23 3 -28 -1
-28 -17z"/>
<path d="M1580 720 c0 -5 7 -7 15 -4 8 4 15 8 15 10 0 2 -7 4 -15 4 -8 0 -15
-4 -15 -10z"/>
<path d="M1744 721 c4 -5 2 -11 -3 -13 -5 -1 -4 -11 4 -21 11 -16 13 -15 17
13 3 21 0 30 -9 30 -8 0 -12 -4 -9 -9z"/>
<path d="M1820 719 c0 -5 5 -7 10 -4 6 3 10 8 10 11 0 2 -4 4 -10 4 -5 0 -10
-5 -10 -11z"/>
<path d="M1504 694 c-2 -21 2 -25 17 -21 10 3 17 1 13 -4 -3 -5 2 -9 10 -9 9
0 16 3 17 8 0 4 2 17 5 30 3 19 0 22 -29 22 -27 0 -32 -4 -33 -26z"/>
<path d="M1700 705 c-10 -12 -10 -15 4 -15 9 0 16 7 16 15 0 8 -2 15 -4 15 -2
0 -9 -7 -16 -15z"/>
<path d="M1368 698 c-25 -9 -28 -14 -28 -59 0 -48 0 -48 25 -39 14 5 31 9 38
7 8 -1 12 15 13 51 2 55 -1 58 -48 40z m31 -65 c1 -7 -3 -13 -9 -13 -5 0 -10
17 -9 38 1 33 2 34 9 12 4 -14 8 -31 9 -37z"/>
<path d="M1438 683 c5 -24 6 -25 12 -8 8 21 4 35 -9 35 -5 0 -6 -12 -3 -27z"/>
<path d="M1507 654 c-4 -4 -7 -20 -7 -36 0 -21 -4 -27 -12 -22 -7 4 -4 -2 6
-14 11 -12 24 -22 30 -21 6 0 6 3 -2 6 -17 7 -5 23 19 23 10 0 19 7 19 15 0 8
-6 15 -13 15 -8 0 -18 9 -23 21 -5 11 -13 17 -17 13z"/>
<path d="M1358 582 c-10 -2 -18 -8 -18 -13 0 -11 11 -11 30 1 18 11 11 18 -12
12z"/>
<path d="M1683 499 c-20 -13 -33 -16 -33 -9 0 6 -4 8 -10 5 -22 -14 -8 -24 29
-20 43 4 87 23 77 33 -4 3 -12 0 -18 -6 -17 -17 -33 -15 -18 3 17 20 11 19
-27 -6z"/>
<path d="M1345 490 c-3 -6 1 -7 9 -4 18 7 21 14 7 14 -6 0 -13 -4 -16 -10z"/>
<path d="M1841 14 c0 -11 3 -14 6 -6 3 7 2 16 -1 19 -3 4 -6 -2 -5 -13z"/>
</g>
</svg>
